<svg width="1518" height="411" viewBox="0 0 1518 411" fill="none" xmlns="http://www.w3.org/2000/svg">
<path fill-rule="evenodd" clip-rule="evenodd" d="M1363.34 211.861C1374.25 214.632 1366.3 229.282 1358.52 222.907C1355.25 220.228 1354.96 211.812 1363.34 211.861Z" fill="#013025"/>
<path fill-rule="evenodd" clip-rule="evenodd" d="M1037.87 243.544C1029.39 243.544 1028.02 243.022 1027.97 246.027C1027.64 265.557 1028.28 270.296 1028.56 272.386C1030.85 289.244 1045.26 290.675 1053.17 279.06C1055.18 276.113 1057.77 269.902 1058.19 267.524C1058.61 265.156 1059.05 256.792 1059.55 254.881C1059.87 253.669 1062.88 235.511 1081.9 231.215C1082.82 231.007 1089.73 230.504 1092.73 231.199C1101.13 233.145 1102.73 236.253 1110.22 237.702C1114.15 238.46 1114.59 238.982 1123.02 238.747C1123.97 238.72 1128.54 238.593 1134.54 235.758C1137.13 234.533 1137.69 231.208 1142.61 231.165C1147.47 231.123 1148.05 233.828 1148.16 234.327C1148.48 235.775 1147.81 273.392 1148.55 277.344C1148.76 278.486 1149.19 282.747 1152.56 284.944C1153.97 285.864 1168.17 292.383 1176.54 264.539C1179.04 256.238 1177.85 256.065 1178.15 236.245C1178.18 234.397 1178.17 231.858 1182.74 231.245C1184.83 230.964 1187.4 231.585 1188.48 232.493C1189.7 233.518 1189.54 233.826 1189.54 260.713C1189.54 280.511 1188.81 286.454 1195.46 286.597C1205.32 286.809 1215 269.323 1217.86 254.814C1218.34 252.353 1218.53 252.416 1218.89 249.934C1219.57 245.149 1220.61 244.583 1218.65 240.294C1213.43 228.836 1220.21 222.103 1226.84 224.393C1229.41 225.283 1231.17 228.852 1230.61 233.291C1230.43 234.714 1229.81 235.006 1230.99 235.82C1232.13 236.605 1233.13 235.327 1243.45 232.339C1245.38 231.78 1253.83 230.581 1257.97 233.528C1261.82 236.277 1262.66 241.636 1262.73 243.107C1262.96 248.006 1263.23 247.993 1262.92 252.874C1262.42 260.73 1262.82 260.733 1261.96 268.534C1261.86 269.394 1261.98 269.39 1261.48 279.325C1260.93 290.133 1272.26 287.7 1277.76 279.355C1277.85 279.211 1283.3 273.065 1292.07 249.833C1295.14 241.704 1294.5 241.541 1294.42 241.118C1293.39 235.74 1292.98 235.674 1294.24 230.341C1294.91 227.524 1298.91 222.604 1305.21 224.106C1308.78 224.96 1308.79 228.618 1308.68 230.344C1308.26 236.487 1301.81 239.003 1309.94 247.07C1313.39 250.485 1325.21 258.827 1328.63 263.629C1330.41 266.128 1331.55 267.344 1332.84 271.368C1332.89 271.499 1334.32 277.14 1333.73 280.33C1333.07 283.9 1332.34 285.507 1332.66 286.071C1333.23 287.053 1337.85 286.983 1342.22 283.125C1350.2 276.088 1356.6 257.837 1356.8 254.824C1357.28 247.893 1356.13 235.073 1357.65 233.093C1359.8 230.294 1367.23 230.42 1368.21 234.163C1368.78 236.357 1368.09 278.651 1368.61 281.294C1370.33 290.024 1381.18 288.798 1385.12 271.429C1387.75 259.85 1388.51 246.299 1395.65 236.645C1396.73 235.182 1402.67 229.372 1410.85 231.248C1413.55 231.866 1419.6 232.138 1421.91 241.047C1422.08 241.71 1422.28 243.787 1422.23 244.216C1422.21 244.475 1422.02 244.71 1422.03 244.972C1422.03 245.103 1422.22 245.158 1422.27 245.275C1422.68 246.095 1422.75 246.484 1423.53 245.991C1423.72 245.868 1423.6 245.528 1423.71 245.328C1424.08 244.666 1424.2 244.755 1424.51 244.049C1426.6 239.215 1434.03 231.222 1442.13 230.918C1445.23 230.801 1455.24 230.052 1460.58 239.276C1461.22 240.387 1461.85 242.68 1461.94 242.985C1461.99 243.178 1461.79 243.81 1462.78 243.92C1463.06 243.952 1463.37 244.092 1463.63 243.981C1463.79 243.916 1464.66 242.314 1464.74 242.164C1465.17 241.374 1468.44 237.407 1470.79 235.599C1472.73 234.115 1478.03 229.87 1488.2 231.023C1492.42 231.501 1498.86 234.506 1501.18 240.027C1504.82 248.672 1503.13 260.66 1503.5 281.277C1503.53 283.213 1503.55 284.38 1504.64 285.375C1507.52 288.011 1510.55 282.328 1511.89 281.723C1514.95 280.341 1522.18 284.135 1513.97 292.388C1511.7 294.67 1509.08 296.904 1501.9 296.477C1497.55 296.217 1493.53 292.672 1492.88 289.136C1491.76 283.049 1491.93 283.033 1491.93 261.692C1491.93 250.13 1492.19 248.562 1490.18 245.012C1488.44 241.926 1480.05 237.468 1471.42 247.911C1467 253.275 1464.54 261.176 1464.02 262.779C1462.99 265.965 1463.4 269.701 1463.33 291.058C1463.32 292.509 1463.94 297.111 1455.82 296.335C1451.03 295.878 1451.77 292.638 1451.77 283.228C1451.77 249.734 1451.87 249.659 1450.98 247.005C1449.33 242.124 1445.62 241.414 1442.17 241.496C1435.67 241.651 1429.28 249.243 1425.49 260.703C1422.74 269 1423.17 269.172 1423.17 281.27C1423.17 292.778 1423.51 294.29 1421.38 295.608C1420.43 296.195 1411.81 298.476 1411.62 292.043C1411.54 289.164 1411.75 246.485 1411.49 245.097C1410.51 239.848 1404.55 240.23 1401.97 245.02C1396.37 255.41 1397.49 270.449 1391.7 282.459C1391.29 283.312 1387.8 292.728 1379.64 295.383C1375.78 296.64 1375.74 296.543 1371.67 296.546C1368.15 296.549 1364.23 296.308 1360.73 292.182C1360.38 291.777 1358.47 289.525 1357.85 286.189C1356.89 281.08 1357.61 279.297 1356.75 278.718C1356.15 278.318 1356.1 278.547 1355.82 278.914C1354.43 280.762 1354.91 281.014 1353.7 282.996C1344.84 297.501 1334.56 296.887 1327.6 296.351C1325.16 296.164 1325.2 295.971 1322.77 295.682C1319.68 295.314 1308.68 300.093 1295.63 292.53C1293.34 291.2 1292.19 289.707 1291.95 289.4C1289.64 286.393 1293.86 280.017 1298.51 282.792C1300.81 284.164 1310.44 291.183 1318.9 285.304C1321.22 283.696 1325.81 276.798 1317.78 267.612C1314.08 263.375 1313.82 263.664 1304.33 254.634C1302.01 252.434 1300.83 250.664 1299.81 253.692C1292.92 274.102 1285.79 292.41 1270.89 296.104C1269.1 296.545 1262.44 296.795 1260.03 296.136C1252.38 294.04 1251.1 288.833 1250.51 287.072C1249.1 282.871 1250.94 268.317 1251.03 263.644C1251.28 251.293 1254.63 241.384 1245.35 242.715C1241.9 243.209 1236.37 245.185 1230.62 246.627C1226.9 247.559 1228.41 249.265 1226.78 255.814C1226.28 257.836 1225.76 260.291 1225.68 260.682C1224.39 266.763 1224.31 266.731 1222.21 272.572C1221.11 275.615 1217.63 282.768 1214.87 286.015C1212.09 289.297 1204.94 297.799 1190.62 296.461C1182.44 295.697 1180.12 290.145 1179.13 286.078C1178.81 284.748 1179.05 281.911 1178.58 281.551C1178.5 281.487 1177.35 281.559 1177.3 281.625C1176.58 282.629 1177.42 284.097 1172.38 289.47C1171.67 290.227 1167.55 294.622 1161.26 296.145C1160.05 296.439 1153.24 296.823 1150.42 296.03C1143.84 294.175 1141.25 291.03 1139.35 287.29C1138.84 286.29 1137.6 282.672 1137.51 281.285C1137.04 273.939 1136.98 273.957 1136.98 266.586C1136.98 254.778 1136.96 254.794 1137 246.995C1137.03 243.284 1134.45 245.53 1131.95 246.348C1119.55 250.402 1114.28 246.761 1113.26 248C1112.52 248.897 1113.14 248.984 1113.88 251.014C1114.46 252.632 1115.65 258.412 1115.79 261.707C1116.16 270.365 1113.65 286.171 1100.35 293.677C1094.18 297.163 1075.32 301.504 1064.04 284.375C1063.01 282.81 1062.48 280.78 1061.18 281.932C1060.02 282.95 1060.71 283.816 1056.86 288.431C1050.17 296.445 1041.79 296.868 1035.94 296.461C1023.91 295.625 1018.91 284.543 1018.04 279.356C1017.45 275.91 1017.15 275.964 1017.06 272.465C1016.8 262.177 1016.77 262.194 1016.77 251.903C1016.77 246.012 1017.1 244.108 1015.49 243.696C1013.52 243.196 1005.96 244.703 1004.73 242.041C1004.61 241.796 1002.13 233.824 1007.49 233.03C1009.58 232.72 1015.25 233.435 1016.34 232.326C1017.06 231.59 1016.7 231.397 1016.77 210.792C1016.78 207.265 1017.02 205.1 1023.17 205.302C1028.75 205.484 1027.96 207.953 1027.96 216.663C1027.96 231.786 1027.8 232.177 1028.87 232.637C1031.37 233.706 1044.19 231.707 1045.8 234.195C1047.75 237.201 1046.42 241.458 1046.23 241.879C1045.3 243.942 1042.02 243.544 1037.87 243.544ZM1088.75 241.579C1085.19 241.642 1085.12 241.319 1081.75 242.613C1081.41 242.742 1079.48 243.483 1077.85 244.861C1068.15 253.099 1070.61 267.034 1070.83 269.557C1070.98 271.203 1072.34 275.13 1072.4 275.279C1079.28 290.571 1094.95 287.608 1100.07 279.023C1103.2 273.776 1103.25 270.655 1103.49 269.529C1106.07 257.45 1100.37 248.642 1098.74 246.848C1094.85 242.543 1091.64 241.992 1088.75 241.579Z" fill="#013025"/>
<path fill-rule="evenodd" clip-rule="evenodd" d="M290.672 149.163C294.215 149.146 298.39 149.146 302.195 149.163H290.672ZM403.633 149.163C409.484 148.945 416.9 149.048 421.659 149.163H403.633Z" fill="#013025"/>
<path d="M65.6957 301.773C53.6515 301.773 42.9341 299.955 33.5484 296.315C24.1626 292.675 16.5528 287.359 10.7171 280.362C4.88143 273.362 1.30492 261.875 0 251.797H28.083C31.6614 251.797 34.864 254.008 36.1406 257.352C37.9075 262.118 40.7127 265.976 44.5465 268.815C49.7743 272.685 56.7793 274.621 65.5612 274.621C74.339 274.621 81.2456 272.896 86.287 269.442C91.3324 265.992 93.8539 261.652 93.8539 256.429C93.8539 251.951 92.081 248.286 88.5309 245.44C84.985 242.598 79.8926 240.472 73.2626 239.075L47.3484 233.617C32.9659 230.629 22.1086 225.523 14.7815 218.292C7.45047 211.06 3.78344 201.8 3.78344 190.508C3.78344 181.179 6.32759 173.036 11.4176 166.088C16.5076 159.136 23.6526 153.723 32.8479 149.852C42.0472 145.981 52.7646 144.046 64.9952 144.046C76.9503 144.046 87.3427 145.908 96.1651 149.642C104.992 153.375 112.019 158.622 117.247 165.388C122.479 172.15 125.65 183.228 126.773 192.463H101.437C97.3759 192.463 93.7199 190.014 92.1759 186.264C90.717 182.746 88.4299 179.612 85.3095 177.004C80.4545 172.943 73.9143 170.915 65.6957 170.915C57.9473 170.915 51.6681 172.619 46.8577 176.025C42.0473 179.43 39.643 183.697 39.643 188.831C39.643 193.31 41.3706 196.994 44.8274 199.885C48.2802 202.78 53.5125 204.971 60.5153 206.465L87.13 212.06C101.885 215.142 112.788 220.061 119.839 226.827C126.891 233.593 130.418 242.432 130.418 253.348C130.418 263.146 127.662 271.661 122.151 278.892C116.643 286.124 109.007 291.744 99.2481 295.756C89.4895 299.769 78.3032 301.773 65.6957 301.773Z" fill="#013025"/>
<path fill-rule="evenodd" clip-rule="evenodd" d="M170.689 292.143C170.64 297.476 166.306 301.772 160.969 301.772H135.787C135.787 301.772 135.787 143.078 135.787 101.794C135.787 99.2168 136.813 96.7447 138.637 94.9211C140.46 93.0974 142.929 92.0762 145.507 92.0762H171.647V210.443H173.048C173.048 210.443 214.319 166.031 226.72 152.69C228.937 150.303 232.054 148.946 235.312 148.946H272.786L212.311 214.707L276.427 301.772H239.693C235.957 301.772 232.443 299.993 230.235 296.982C217.064 279.021 171.393 216.753 171.393 216.753C171.393 216.753 170.896 269.882 170.689 292.143Z" fill="#013025"/>
<path d="M661.18 361.628C648.299 361.628 637.137 359.866 627.687 356.341C618.238 352.816 610.627 347.855 604.841 341.461C599.06 335.068 592.616 322.804 590.641 314.44C590.641 314.44 609.639 314.411 619.978 314.395C623.678 314.391 627.115 316.288 629.086 319.421C630.077 321.192 631.385 322.804 632.907 324.329C635.869 327.287 639.698 329.642 644.398 331.38C649.098 333.118 654.693 333.987 661.18 333.987C672.371 333.987 681.186 331.143 687.624 325.456C694.066 319.768 697.282 311.282 697.282 300.001V274.052H695.875C693.334 278.94 690.045 283.334 686.002 287.238C681.959 291.139 677.072 294.195 671.336 296.406C665.599 298.613 658.878 299.719 651.167 299.719C638.662 299.719 627.522 296.639 617.742 290.482C607.967 284.321 600.306 275.533 594.757 264.109C589.208 252.685 586.438 239.03 586.438 223.142C586.438 207.063 589.235 193.171 594.829 181.465C600.422 169.764 608.106 160.715 617.886 154.321C627.661 147.928 638.756 144.729 651.167 144.729C658.878 144.729 665.649 145.929 671.479 148.328C677.305 150.723 682.287 153.922 686.424 157.916C690.562 161.91 693.945 166.353 696.577 171.241H697.565V147.267H722.821C728.501 147.267 733.105 151.874 733.105 157.553C733.105 191.547 733.105 298.169 733.105 298.169C733.105 312.926 729.98 324.986 723.726 334.342C717.475 343.697 708.92 350.584 698.059 355.003C687.202 359.421 674.909 361.628 661.18 361.628ZM660.335 270.527C668.234 270.527 675.027 268.577 680.715 264.672C686.402 260.772 690.753 255.248 693.76 248.104C696.767 240.955 698.27 232.498 698.27 222.718C698.27 213.032 696.767 204.57 693.76 197.332C690.753 190.095 686.402 184.452 680.715 180.409C675.027 176.365 668.234 174.346 660.335 174.346C652.624 174.346 645.998 176.321 640.449 180.27C634.905 184.219 630.649 189.813 627.687 197.051C624.725 204.289 623.245 212.844 623.245 222.718C623.245 232.685 624.725 241.241 627.687 248.385C630.649 255.529 634.905 261.008 640.449 264.815C645.998 268.622 652.624 270.527 660.335 270.527Z" fill="#013025"/>
<path d="M781.76 212.282C781.76 212.282 781.76 263.371 781.76 287.635C781.76 294.542 776.157 300.144 769.25 300.144H745.654C745.654 300.144 745.654 143.449 745.654 100.683C745.654 97.8512 746.783 95.1381 748.782 93.1389C750.785 91.1356 753.497 90.0137 756.324 90.0137H781.617V185.77H775.696C780.302 172.323 786.929 162.123 795.578 155.167C804.228 148.21 814.995 144.73 827.875 144.73C838.499 144.73 847.828 147.011 855.865 151.572C863.903 156.129 870.16 162.804 874.623 171.597C879.091 180.385 881.321 191.176 881.321 203.963V300.144H857.726C850.818 300.144 845.219 294.542 845.219 287.635C845.219 262.792 845.219 209.601 845.219 209.601C845.219 198.79 842.562 190.495 837.254 184.71C831.942 178.928 824.486 176.04 814.898 176.04C808.505 176.04 802.819 177.353 797.833 179.989C792.852 182.621 788.928 186.639 786.059 192.045C783.191 197.451 781.76 204.196 781.76 212.282Z" fill="#013025"/>
<path fill-rule="evenodd" clip-rule="evenodd" d="M900.194 176.038H881.322V156.544C881.322 151.421 885.475 147.269 890.598 147.269C895.369 147.269 900.194 147.269 900.194 147.269V108.062H924.662C927.748 108.062 930.707 109.288 932.89 111.471C935.071 113.653 936.297 116.612 936.297 119.699C936.297 131.256 936.297 147.269 936.297 147.269H966.759V166.763C966.759 171.885 962.606 176.038 957.484 176.038C948.523 176.038 936.297 176.038 936.297 176.038V253.179H936.301V263.999H966.759V300.142H900.159V253.179H900.194V176.038Z" fill="#013025"/>
<path fill-rule="evenodd" clip-rule="evenodd" d="M560.128 172.646H558.512C549.263 172.646 541.755 165.138 541.755 155.889C541.755 146.641 549.263 139.132 558.512 139.132H560.128C569.376 139.132 576.885 146.641 576.885 155.889C576.885 165.138 569.376 172.646 560.128 172.646Z" fill="#A6EE42"/>
<path fill-rule="evenodd" clip-rule="evenodd" d="M391.446 155.324C392.644 151.65 396.071 149.163 399.936 149.163C410.912 149.163 431.98 149.163 431.98 149.163L423.841 171.952L423.781 171.933C416.057 195.563 401.667 233.569 397.15 246.81C398.281 246.117 399.634 245.197 401.16 244.113C411.529 236.755 428.881 221.819 438.669 211.961C442.492 208.015 444.984 202.97 445.792 197.536C445.819 197.54 445.82 197.54 445.82 197.54C448.971 176.357 455.553 122.471 470.745 76.4574C478.424 53.1972 488.322 31.9483 501.017 17.7981C509.745 8.0684 519.806 1.65798 531.335 0.02242C531.532 -0.0052078 531.732 -0.00759093 531.928 0.0168794C555.142 2.87043 562.581 23.2266 558.583 51.8063C552.868 92.6544 532.528 141.934 497.525 185.252C497.154 185.712 495.823 186.95 488.815 194.571C487.942 195.52 484.708 198.792 483.277 201.219C479.837 207.056 476.879 218.172 479.608 249.042C481.203 267.08 487.13 276.266 495.51 278.651C500.445 280.055 506.088 279.05 511.894 276.337C521.139 272.016 530.713 263.38 538.622 252.387C540.032 250.428 541.08 248.406 541.858 246.041C542.153 245.134 542.303 244.186 542.303 243.232C542.333 235.03 542.333 187.145 542.333 187.145H570.094C571.895 187.145 573.623 187.86 574.896 189.134C576.169 190.408 576.886 192.135 576.886 193.936C576.886 219.119 576.886 305.721 576.886 305.721H549.125C547.324 305.721 545.596 305.005 544.323 303.731C543.049 302.458 542.333 300.731 542.333 298.93C542.333 293.116 542.333 285.678 542.333 285.678C533.232 294.265 517.598 307.931 498.735 308.723C485.488 309.281 475.595 306.239 468.169 301.145C457.054 293.522 451.431 281.217 448.556 268.987C445.757 257.084 445.564 245.301 445.139 238.42C444.803 238.704 444.447 239.009 444.094 239.32C437.884 244.798 423.082 258.093 387.148 282.025C385.008 283.45 383.364 287.075 381.331 292.513C376.037 306.679 369.454 332.475 354.072 367.28C337.536 404.697 308.287 414.796 288.748 409.097C280.008 406.548 273.119 400.866 269.821 393.016C260.961 371.932 269.426 351.008 283.139 333.454C302.339 308.875 331.701 290.979 334.96 288.892C334.971 288.696 334.982 288.351 334.952 288.079C334.866 287.277 334.636 286.299 334.293 285.145C332.037 277.547 325.135 263.288 316.756 243.482C303.346 211.78 294.555 191.245 288.899 177.888L288.826 177.921L276.889 149.163H310.452C314.104 149.163 317.387 151.387 318.744 154.777C320.237 158.51 321.925 162.728 321.925 162.728L321.89 162.744C323.424 166.222 325.142 170.288 326.981 174.75C337.428 200.111 351.887 238.456 358.184 253.341C358.503 254.094 358.821 254.814 359.117 255.47C359.797 253.813 360.632 251.688 361.415 249.452C368.773 228.44 383.005 180.736 389.604 160.841C389.984 159.694 390.344 158.633 390.68 157.67C390.68 157.67 391.012 156.655 391.446 155.324ZM340.039 313.445C339.535 313.687 339.018 313.954 338.578 314.216C335.229 316.21 331.529 319.013 331.081 319.351C302.57 340.932 292.225 359.469 291.154 371.553C290.552 378.357 292.931 382.883 296.807 383.788C300.713 384.7 304.369 383.359 307.787 380.697C311.599 377.728 315.093 373.162 318.275 367.871C328.208 351.359 334.976 327.858 337.437 320.747L337.443 320.729C338.821 316.852 339.589 314.703 340.039 313.445ZM484.503 161.718C523.618 103.05 536.329 56.3128 534.824 36.0104C534.594 32.9216 534.048 30.5077 533.146 28.854C532.57 27.7978 531.892 27.0984 530.957 27.0416C530.041 26.9863 529.033 27.4284 527.886 28.2138C525.571 29.7988 522.973 32.7258 520.124 37.0507C503.128 62.8519 487.723 143.771 485.898 153.304L485.896 153.316C485.801 153.797 484.954 158.004 484.503 161.718Z" fill="#013025"/>
<path fill-rule="evenodd" clip-rule="evenodd" d="M173.026 210.442L171.773 211.782V210.442H173.026ZM230.516 148.947L176.399 206.834C176.399 206.834 226.648 152.768 230.021 149.138C230.134 149.017 230.293 148.947 230.46 148.947C230.493 148.947 230.516 148.947 230.516 148.947Z" fill="#013025"/>
</svg>
