<svg width="738" height="738" viewBox="0 0 738 738" fill="none" xmlns="http://www.w3.org/2000/svg">
<path fill-rule="evenodd" clip-rule="evenodd" d="M474.871 84C552.71 85.7415 529.434 199.687 499.904 259.787C442.371 376.88 382.365 413.539 421.644 385.73C511.077 322.412 507.001 317.678 513.97 308.042C523.951 294.238 533.763 305.147 534.658 306.324C570.908 354.026 437.258 414.153 403.835 430.839C393.058 436.219 402.204 447.126 390.202 510.349C360.882 664.778 205.335 690.834 198.024 610.982C189.413 516.94 327.602 434.643 333.82 429.916C340.739 424.655 324.934 300.201 350.965 220.06C389.557 101.245 444.722 87.6566 474.871 84ZM331.291 490.23C332.026 486.577 332.646 482.902 333.38 479.249C335.757 467.428 325.906 479.472 320.422 483.955C247.122 543.894 226.309 616.636 258.892 613.476C310.918 608.431 330.813 492.377 331.291 490.23ZM415.627 212.403C405.608 258.151 404.7 265.689 399.296 347.908C398.8 355.433 404.072 346.987 404.29 346.638C406.073 343.78 430.275 309.491 448.909 270.879C479.003 208.515 488.647 123.537 469.387 124.396C439.392 125.735 417.808 204.449 415.627 212.403Z" fill="#A6EE42"/>
</svg>
